<svg xmlns="http://www.w3.org/2000/svg" width="17px" height="17px"><path d="M16.735,15.483 L12.545,11.275 C13.622,10.039 14.212,8.482 14.212,6.863 C14.212,3.078 11.024,-0.001 7.105,-0.001 C3.187,-0.001 -0.002,3.078 -0.002,6.863 C-0.002,10.647 3.187,13.726 7.105,13.726 C8.577,13.726 9.978,13.298 11.177,12.484 L15.398,16.724 C15.575,16.901 15.812,16.999 16.066,16.999 C16.307,16.999 16.535,16.910 16.709,16.749 C17.077,16.406 17.089,15.839 16.735,15.483 ZM7.105,1.790 C10.002,1.790 12.358,4.065 12.358,6.863 C12.358,9.660 10.002,11.936 7.105,11.936 C4.209,11.936 1.852,9.660 1.852,6.863 C1.852,4.065 4.209,1.790 7.105,1.790 Z"/></svg>